# xmcd CD database file
#
# Track frame offsets:
#	150
#	5040
#	20712
#	38151
#	50590
#	62503
#	77651
#	81714
#	93301
#	103606
#
# Disc length: 1571 seconds
#
# Revision: 0
# Processed by: cddbd v1.5.2PL0 Copyright (c) Steve Scherf et al.
# Submitted via: CDex 1.70beta2
#
DISCID=7d06210a
DTITLE=Take It Back! - Atrocities
DYEAR=2009
DGENRE=Salsa
TTITLE0=The Beginning. Nothing
TTITLE1=New Empire
TTITLE2=Lost Generation
TTITLE3=Hollow Eyes
TTITLE4=A Reason to Scream
TTITLE5=What We're Fighting For
TTITLE6=Minneapolis
TTITLE7=The Skies Are Empty
TTITLE8=The Prodigal Soldier
TTITLE9=The End of Apathy
EXTD=YEAR: 2009
EXTT0=
EXTT1=
EXTT2=
EXTT3=
EXTT4=
EXTT5=
EXTT6=
EXTT7=
EXTT8=
EXTT9=
PLAYORDER=
